<svg width="0" height="0" class="hidden" xmlns="http://www.w3.org/2000/svg">
    <defs>
        <symbol id="facebook" width="24" height="24" viewBox="0 0 24 24" fill="none">
            <path d="M17.5847 13.5L18.2512 9.15656H14.0836V6.33797C14.0836 5.14969 14.6658 3.99141 16.5323 3.99141H18.427V0.293438C18.427 0.293438 16.7077 0 15.0637 0C11.6316 0 9.38812 2.08031 9.38812 5.84625V9.15656H5.57297V13.5H9.38812V24H14.0836V13.5H17.5847Z" fill="currentColor"/>
        </symbol>
        <svg id="linkedin" width="24" height="24" viewBox="0 0 24 24" fill="none">
            <g clip-path="url(#clip0_494_9272)">
                <rect width="24" height="24" fill="white"/>
                <path d="M22.2857 0H1.70893C0.766071 0 0 0.776786 0 1.73036V22.2696C0 23.2232 0.766071 24 1.70893 24H22.2857C23.2286 24 24 23.2232 24 22.2696V1.73036C24 0.776786 23.2286 0 22.2857 0ZM7.25357 20.5714H3.69643V9.11786H7.25893V20.5714H7.25357ZM5.475 7.55357C4.33393 7.55357 3.4125 6.62679 3.4125 5.49107C3.4125 4.35536 4.33393 3.42857 5.475 3.42857C6.61071 3.42857 7.5375 4.35536 7.5375 5.49107C7.5375 6.63214 6.61607 7.55357 5.475 7.55357ZM20.5875 20.5714H17.0304V15C17.0304 13.6714 17.0036 11.9625 15.1821 11.9625C13.3286 11.9625 13.0446 13.4089 13.0446 14.9036V20.5714H9.4875V9.11786H12.9V10.6821H12.9482C13.425 9.78214 14.5875 8.83393 16.3179 8.83393C19.9179 8.83393 20.5875 11.2071 20.5875 14.2929V20.5714Z" fill="currentColor"/>
            </g>
            <defs>
                <clipPath id="clip0_494_9272">
                    <rect width="24" height="24" fill="white"/>
                </clipPath>
            </defs>
        </svg>
        <svg id="twitter-x" width="24" height="24" viewBox="0 0 24 24" fill="none">
            <path d="M18.8996 1.33301H22.5815L14.5398 10.5221L24 23.0279H16.5945L10.7901 15.4451L4.15645 23.0279H0.469361L9.0691 13.1974L0 1.33301H7.59322L12.8344 8.26391L18.8996 1.33301ZM17.6063 20.8271H19.6454L6.4824 3.41906H4.29205L17.6063 20.8271Z" fill="currentColor"/>
        </svg>
    </defs>
</svg>